<?xml version="1.0" encoding="UTF-8"?>
<svg id="Layer_1" data-name="Layer 1" xmlns="http://www.w3.org/2000/svg" viewBox="0 0 447.6 154.7">
  <defs>
    <style>
      .cls-1, .cls-2 {
        fill: #ffc20e;
      }

      .cls-3 {
        fill: #fff;
      }

      .cls-2, .cls-4, .cls-5 {
        fill-rule: evenodd;
      }

      .cls-6, .cls-5 {
        fill: #178e91;
      }

      .cls-4, .cls-7 {
        fill: #6f461b;
      }
    </style>
  </defs>
  <g>
    <polygon class="cls-4" points="39.4 68.1 14.2 53.5 7.1 49.4 7.1 45.3 62.9 13.1 100.9 35 108.1 30.9 62.9 4.8 0 41.2 0 53.5 .9 54.1 7.1 57.6 14.2 61.7 14.2 105.6 59.4 131.7 59.4 79.6 39.4 68.1"/>
    <polygon class="cls-5" points="108.1 47.3 115.2 43.2 118.8 45.3 118.8 109.7 80.7 131.7 80.7 139.9 125.9 113.9 125.9 41.2 115.2 35 112.9 36.4 108.1 39.1 100.9 43.2 62.9 21.3 17.8 47.3 62.9 73.4 108.1 47.3"/>
    <polygon class="cls-2" points="111.6 105.6 73.6 127.6 73.6 135.8 73.6 141.4 73.6 144 62.9 150.2 0 113.9 0 61.7 7.1 65.9 7.1 109.7 62.9 142 66.5 139.9 66.5 131.7 66.5 101.2 66.5 79.6 111.6 53.5 111.6 105.6"/>
    <circle class="cls-3" cx="63.4" cy="79.9" r="20.8"/>
    <g>
      <circle class="cls-6" cx="63.4" cy="79.9" r="13.1"/>
      <circle class="cls-3" cx="63.4" cy="79.9" r="11.8"/>
      <path class="cls-1" d="m63.4,69.3c5.8,0,10.6,4.7,10.6,10.6s-4.7,10.6-10.6,10.6-10.6-4.7-10.6-10.6,4.7-10.6,10.6-10.6m0-1c-6.4,0-11.5,5.2-11.5,11.5s5.2,11.5,11.5,11.5,11.5-5.2,11.5-11.5-5.2-11.5-11.5-11.5h0Z"/>
      <polygon class="cls-6" points="63.1 79.7 63.3 79.9 63.4 80.3 63.6 80 63.8 79.7 63.5 79.7 63.1 79.7"/>
      <path class="cls-6" d="m62.9,79.5c0,.1,0,.2,0,.2h.1v-.2c-.1,0-.1,0-.2,0Z"/>
      <path class="cls-6" d="m63.4,80.5c0,0,.1-.1.1-.1h0c0-.1-.1,0-.1,0,0,0,0,0,0,0Z"/>
      <path class="cls-6" d="m63.8,79.7h.2s0,0,0-.1c-.1,0-.2,0-.2,0h0Z"/>
      <path class="cls-6" d="m62.7,93.9c0,1,0,1.8-.2,2.6-.2.9-.4,3,.9,3s1-2.1.9-3c-.2-.9-.2-1.6-.2-2.6.8-.2.6-.8.6-.8,0,0-.4-.8-.8-1.5.3-.4.4-1.2.5-1.9,0-.6,0-1.3,0-1.8,0-.8-.2-1.4-.2-1.5.9-.3.2-.9,0-.9.5-2.7.1-4.5,0-5,0,0-.1,0-.1,0v-.2h-.5s-.3,0-.3,0v.2c0,0-.1,0-.2,0-.1.5-.6,2.2,0,5.1-.2,0-.9.6,0,.9,0,.1-.1.7-.2,1.5,0,.6,0,1.2,0,1.8,0,.8.2,1.5.5,2-.4.6-.8,1.5-.8,1.5,0,0-.2.6.6.8Z"/>
      <g>
        <path class="cls-6" d="m64.1,65.9c0-1,0-1.8.2-2.6.2-.9.4-3-.9-3s-1,2.1-.9,3c.2.9.2,1.6.2,2.6-.8.2-.6.8-.6.8,0,0,.4.8.8,1.5-.3.4-.4,1.2-.5,1.9,0,.6,0,1.3,0,1.8,0,.8.2,1.4.2,1.5-.9.3-.2.9,0,.9-.5,2.7-.1,4.5,0,5,0,0,.1,0,.1,0v.2h.8v-.2c0,0,.1,0,.2,0,.1-.5.6-2.2,0-5.1.2,0,.9-.6,0-.9,0-.1.1-.7.2-1.5,0-.6,0-1.2,0-1.8,0-.8-.2-1.5-.5-2,.4-.6.8-1.5.8-1.5,0,0,.2-.6-.6-.8Z"/>
        <path class="cls-6" d="m54,69.5c-.7-.7-1.2-1.3-1.7-2-.5-.8-1.8-2.4-2.7-1.5-.9.9.7,2.2,1.5,2.7.8.5,1.3,1,2,1.7-.4.7.1,1,.1,1,0,0,.9.3,1.6.4,0,.5.5,1.1,1,1.7.4.5.9.9,1.3,1.3.6.5,1.1.9,1.2,1-.4.9.5.8.7.6,1.6,2.3,3.1,3.2,3.6,3.5,0,0,0,0,0,0h.2c0,0,.3-.2.3-.2l.2-.2v-.2c0,0,0,0,0,0-.2-.4-1.2-2-3.5-3.6.1-.1.3-1-.6-.7,0-.1-.4-.6-.9-1.2-.4-.4-.8-.9-1.3-1.3-.6-.5-1.2-.9-1.7-1-.1-.7-.4-1.6-.4-1.6,0,0-.3-.6-1-.1Z"/>
        <path class="cls-6" d="m49.5,79.2c-1,0-1.8,0-2.6-.2-.9-.2-3-.4-3,.9,0,1.3,2.1,1,3,.9.9-.2,1.6-.2,2.6-.2.2.8.8.6.8.6,0,0,.8-.4,1.5-.8.4.3,1.2.4,1.9.5.6,0,1.3,0,1.8,0,.8,0,1.4-.2,1.5-.2.3.9.9.2.9,0,2.7.5,4.5.1,5,0,0,0,0-.1,0-.1h.2v-.8s-.2,0-.2,0c0,0,0,0,0-.2-.5-.1-2.2-.6-5.1,0,0-.2-.6-.9-.9,0-.1,0-.7-.1-1.5-.2-.6,0-1.2,0-1.8,0-.8,0-1.5.2-2,.5-.6-.4-1.5-.8-1.5-.8,0,0-.6-.2-.8.6Z"/>
        <path class="cls-6" d="m53.1,89.3c-.7.7-1.3,1.2-2,1.7-.8.5-2.4,1.8-1.5,2.7.9.9,2.2-.7,2.7-1.5.5-.8,1-1.3,1.7-2,.7.4,1-.1,1-.1,0,0,.3-.9.4-1.6.5,0,1.1-.5,1.7-1,.5-.4.9-.9,1.3-1.3.5-.6.9-1.1,1-1.2.9.4.8-.5.6-.7,2.3-1.6,3.2-3.1,3.5-3.6,0,0,0,0,0,0v-.2c0,0-.2-.3-.2-.3l-.2-.2h-.2c0,0,0,0,0,0-.4.2-2,1.2-3.6,3.5-.1-.1-1-.3-.7.6-.1,0-.6.4-1.2.9-.4.4-.9.8-1.3,1.3-.5.6-.9,1.2-1,1.7-.7.1-1.6.4-1.6.4,0,0-.6.3-.1,1Z"/>
        <path class="cls-6" d="m72.8,90.2c.7.7,1.2,1.3,1.7,2,.5.8,1.8,2.4,2.7,1.5.9-.9-.7-2.2-1.5-2.7-.8-.5-1.3-1-2-1.7.4-.7-.1-1-.1-1,0,0-.9-.3-1.6-.4,0-.5-.5-1.1-1-1.7-.4-.5-.9-.9-1.3-1.3-.6-.5-1.1-.9-1.2-1,.4-.9-.5-.8-.7-.6-1.6-2.3-3.1-3.2-3.6-3.5,0,0,0,0,0,0h-.2c0,0-.3.2-.3.2l-.2.2v.2c0,0,0,0,0,0,.2.4,1.2,2,3.5,3.6-.1.1-.3,1,.6.7,0,.1.4.6.9,1.2.4.4.8.9,1.3,1.3.6.5,1.2.9,1.7,1,.1.7.4,1.6.4,1.6,0,0,.3.6,1,.1Z"/>
        <path class="cls-6" d="m77.4,80.6c1,0,1.8,0,2.6.2.9.2,3,.4,3-.9s-2.1-1-3-.9c-.9.2-1.6.2-2.6.2-.2-.8-.8-.6-.8-.6,0,0-.8.4-1.5.8-.4-.3-1.2-.4-1.9-.5-.6,0-1.3,0-1.8,0-.8,0-1.4.2-1.5.2-.3-.9-.9-.2-.9,0-2.7-.5-4.5-.1-5,0,0,0,0,.1,0,.1h-.2v.5s0,.3,0,.3h.2c0,0,0,.1,0,.2.5.1,2.2.6,5.1,0,0,.2.6.9.9,0,.1,0,.7.1,1.5.2.6,0,1.2,0,1.8,0,.8,0,1.5-.2,2-.5.6.4,1.5.8,1.5.8,0,0,.6.2.8-.6Z"/>
        <path class="cls-6" d="m73.8,70.5c.7-.7,1.3-1.2,2-1.7.8-.5,2.4-1.8,1.5-2.7s-2.2.7-2.7,1.5c-.5.8-1,1.3-1.7,2-.7-.4-1,.1-1,.1,0,0-.3.9-.4,1.6-.5,0-1.1.5-1.7,1-.5.4-.9.9-1.3,1.3-.5.6-.9,1.1-1,1.2-.9-.4-.8.5-.6.7-2.3,1.6-3.2,3.1-3.5,3.6,0,0,0,0,0,0v.2c0,0,.2.3.2.3l.2.2h.2c0,0,0,0,0,0,.4-.2,2-1.2,3.6-3.5.1.1,1,.3.7-.6.1,0,.6-.4,1.2-.9.4-.4.9-.8,1.3-1.3.5-.6.9-1.2,1-1.7.7-.1,1.6-.4,1.6-.4,0,0,.6-.3.1-1Z"/>
      </g>
      <g>
        <path class="cls-3" d="m63.4,82.7c-1.6,0-2.9-1.3-2.9-2.9s1.3-2.9,2.9-2.9,2.9,1.3,2.9,2.9-1.3,2.9-2.9,2.9Z"/>
        <path class="cls-6" d="m63.4,77.3c1.4,0,2.6,1.1,2.6,2.6s-1.1,2.6-2.6,2.6-2.6-1.1-2.6-2.6,1.1-2.6,2.6-2.6m0-.6c-1.8,0-3.2,1.4-3.2,3.2s1.4,3.2,3.2,3.2,3.2-1.4,3.2-3.2-1.4-3.2-3.2-3.2h0Z"/>
      </g>
      <circle class="cls-7" cx="63.4" cy="79.9" r="2.1"/>
      <circle class="cls-7" cx="63.4" cy="79.9" r=".7"/>
    </g>
  </g>
  <g>
    <path class="cls-6" d="m156.2,12.8h30.1c1.9,0,3.7,0,5.2.2,1.5.1,2.9.4,4.1.7,1.2.3,2.3.8,3.3,1.5,1,.7,1.9,1.5,2.7,2.6,1.7,2.2,2.8,4.4,3.4,6.8.5,2.3.8,4.6.8,6.8s-.2,4.3-.6,6.3c-.4,2-1.2,3.7-2.4,5.2-1.1,1.5-2.6,2.6-4.3,3.4-1.7.8-3.1,1.3-4.1,1.5-1,.2-2.1.3-3.2.3l13.9,20.8h-15.6l-19.8-30.5v30.5h-13.5V12.8Zm13.5,24.1h12.8c3.5.2,6-.2,7.4-1.3,1.4-1.1,2.2-2.9,2.3-5.4.2-2.2-.6-3.8-2.2-4.9-1.6-1.1-4-1.6-7.2-1.5h-13.1v13.1Z"/>
    <path class="cls-6" d="m210.1,12.8h42.1l-6,11h-22.7v12.5h27.4v11h-27.4v10.6h27.4v11h-40.8V12.8Zm12.8-12.8h8.5l4.3,8.7h-5.4L222.9.2v-.2Z"/>
    <path class="cls-6" d="m275.8,12.8l17,46.6V12.8h12.3v56.1h-21.2l-15.9-45.4v45.4h-12.5V12.8h20.3Z"/>
    <path class="cls-6" d="m323.1,12.8h51.5l-6.4,11h-13.6v45.1h-13.3V23.8h-18.2v-11Z"/>
    <path class="cls-6" d="m377.1,12.8h30.1c1.9,0,3.7,0,5.2.2,1.5.1,2.9.4,4.1.7,1.2.3,2.3.8,3.3,1.5,1,.7,1.9,1.5,2.7,2.6,1.7,2.2,2.8,4.4,3.4,6.8.5,2.3.8,4.6.8,6.8s-.2,4.3-.6,6.3c-.4,2-1.2,3.7-2.4,5.2-1.1,1.5-2.6,2.6-4.3,3.4-1.7.8-3.1,1.3-4.1,1.5s-2.1.3-3.2.3l13.9,20.8h-15.6l-19.8-30.5v30.5h-13.5V12.8Zm13.5,24.1h12.8c3.5.2,6-.2,7.4-1.3,1.4-1.1,2.2-2.9,2.3-5.4.2-2.2-.6-3.8-2.2-4.9-1.6-1.1-4-1.6-7.2-1.5h-13.1v13.1Z"/>
    <path class="cls-6" d="m444.5,12.8v56.1h-13.5V12.8h13.5Zm-5.2-12.8h8.3l-7.2,8.7h-5.6l4.5-8.7Z"/>
    <path class="cls-6" d="m193.8,98.3l-5.4,8.6h-17.5c-1.1,0-2.1,0-2.8.2-.8.2-1.4.5-1.8.8-.5.4-.8.8-1,1.3-.2.5-.3,1.1-.4,1.7,0,.7.2,1.4.7,2.2.5.7,1.2,1.2,2.1,1.3,1,.2,2.2.2,3.9.2h7c3.3,0,5.9.5,7.8,1.4,1,.4,1.9,1.1,2.7,1.8.8.8,1.6,1.7,2.2,2.8.6,1.1,1.1,2.2,1.4,3.5s.5,2.7.5,4.1c0,3.2-.7,6-2.1,8.4-1.3,2.3-3,3.8-5.2,4.5-2.1.6-4.9.9-8.4.9h-23.1v-8.6h20.8c1.2,0,2.3,0,3.2-.2.9-.2,1.7-.5,2.3-.9.6-.4,1-.9,1.3-1.4.3-.5.4-1.1.3-1.7,0-1.1-.5-2-1.3-2.8-.9-.8-2.1-1.1-3.7-1h-8.7c-3,0-5.4-.4-7.3-1.3-1-.5-2-1.2-2.8-2-.9-.8-1.6-1.8-2.2-2.9-.6-1.1-1.1-2.3-1.5-3.6-.3-1.3-.5-2.7-.5-4.2,0-2.8.6-5.3,1.8-7.6.6-1.1,1.4-2,2.3-2.7.9-.7,2-1.3,3.2-1.7,1.2-.4,2.4-.7,3.8-.8,1.4-.2,2.8-.2,4.2-.2h24.2Z"/>
    <path class="cls-6" d="m201.7,109h12.3c2.3,0,4.3.1,6,.4,1.7.3,3.2,1.1,4.5,2.3,1.2,1.2,2,2.8,2.4,4.8.3,1.9.5,4.3.5,6.9v18.5h-10.4v-6.5l-4.5,6.5h-4c-2.8,0-5.1-.3-7-.8-1.9-.5-3.2-1.5-4-2.8-.7-1.4-1.2-2.6-1.4-3.7-.2-1.1-.3-2.1-.3-3.1,0-2.5.5-4.7,1.4-6.4,1-1.7,2.2-2.9,3.6-3.4s3.2-.8,5.4-.8h10.9v-1.3c-.2-.4-.3-.8-.5-1.1-.1-.3-.4-.5-.7-.7-.3-.2-.7-.3-1.3-.3s-1.3,0-2.3,0h-14.9l4.2-8.5Zm8.2,19.6c-.8,0-1.5,0-1.9.1-.5,0-.9.5-1.4,1.2-.2.3-.3.7-.3,1.2s0,.5.1.8c0,.3.2.5.5.8.2.3.6.5,1,.6.4.2,1,.2,1.7.2h7.6v-5.1h-7.3Zm9.3-28.9l-5.7,6.6h-4.2l3.4-6.8h6.6v.2Z"/>
    <path class="cls-6" d="m231.5,109h10.4v7l4.4-7h5.3c1.9,0,3.6.2,5.1.5,1.5.3,2.7,1,3.7,2,1,1,1.7,2.2,1.9,3.5s.4,3.1.4,5.2v21.7h-10.4v-17.7c0-1.6-.2-2.9-.4-3.7-.2-.9-.6-1.5-1.3-1.9-.7-.4-1.7-.6-3.1-.7-1.4,0-3.2,0-5.6,0v24h-10.4v-33Z"/>
    <path class="cls-6" d="m299.2,109v31c0,2.4-.2,4.6-.6,6.6-.4,2-1.4,3.6-2.8,5.1-1.5,1.4-3,2.3-4.6,2.6-.8.2-1.7.3-2.8.4-1.1,0-2.3.1-3.7.1h-10.2l-4.8-8.2h11.9c.6,0,1.2,0,1.7-.1.5,0,.9-.1,1.4-.2.9-.2,1.6-.6,2.2-1.2.7-.6,1.1-2.1,1.1-4.4v-5.8l-4.7,7.2h-1.7c-3,0-5.7-.3-7.9-1-2.2-.7-3.9-1.9-5-3.6-1.1-1.7-1.8-3.6-2.2-5.6-.4-2-.6-4.1-.6-6.5s.2-4,.5-5.7c.3-1.7,1-3.5,2.1-5.4,1.1-1.9,2.8-3.3,5-4.1s5-1.2,8.1-1.2h17.7Zm-18.3,9.2c-1.4.5-2.3,1.3-2.8,2.4-.5,1.1-.7,2.7-.7,4.8,0,1.2,0,2.4.3,3.5.2,1.1.7,2,1.3,2.7.6.7,1.5,1.3,2.6,1.7,1.1.4,2.5.5,4.2.4h2v-15.9h-1.9c-.7,0-1.4,0-2,0-.6,0-1.2,0-1.7.1-.5,0-1,.1-1.3.3Z"/>
    <path class="cls-6" d="m353.5,98.3l-5.4,8.6h-17.5c-1.1,0-2.1,0-2.8.2-.8.2-1.4.5-1.8.8-.5.4-.8.8-1,1.3s-.3,1.1-.4,1.7c0,.7.2,1.4.7,2.2.5.7,1.2,1.2,2.1,1.3,1,.2,2.2.2,3.9.2h7c3.3,0,5.9.5,7.8,1.4,1,.4,1.9,1.1,2.7,1.8s1.6,1.7,2.2,2.8c.6,1.1,1.1,2.2,1.4,3.5s.5,2.7.5,4.1c0,3.2-.7,6-2.1,8.4-1.3,2.3-3,3.8-5.2,4.5-2.1.6-4.9.9-8.4.9h-23.1v-8.6h20.8c1.2,0,2.3,0,3.2-.2s1.7-.5,2.3-.9c.6-.4,1-.9,1.3-1.4.3-.5.4-1.1.3-1.7,0-1.1-.5-2-1.3-2.8-.9-.8-2.1-1.1-3.7-1h-8.7c-3,0-5.4-.4-7.3-1.3-1-.5-2-1.2-2.8-2-.9-.8-1.6-1.8-2.2-2.9-.6-1.1-1.1-2.3-1.5-3.6-.3-1.3-.5-2.7-.5-4.2,0-2.8.6-5.3,1.8-7.6.6-1.1,1.4-2,2.3-2.7.9-.7,2-1.3,3.2-1.7,1.2-.4,2.5-.7,3.8-.8s2.8-.2,4.2-.2h24.2Z"/>
    <path class="cls-6" d="m356.8,109h10.4v18.5c0,1.6.1,2.9.4,3.7.3.9.8,1.5,1.5,1.9.8.4,3.4.5,7.9.5v-24.7h10.4v33h-10.4v-5.9l-4,5.9h-2.3c-3.2,0-5.7-.2-7.5-.5-1.8-.3-3.2-.9-4.2-1.9s-1.7-2.1-1.9-3.5c-.3-1.4-.4-3-.4-4.8v-22.4Z"/>
    <path class="cls-6" d="m407.6,109c1.3,0,2.6,0,4,.1,1.4,0,2.8.3,4.1.6,1.3.3,2.6.7,3.7,1.3,1.2.6,2.1,1.4,3,2.4,1.2,1.6,2.1,3.4,2.6,5.5s.7,4.2.7,6.6c0,3.5-.4,6.3-1.1,8.6-.8,2.3-1.7,4-2.9,5-1.2,1-2.9,1.8-5.1,2.4-2.2.6-4.9.9-8.1.9s-5.5-.3-7.8-.8c-2.3-.5-4.1-1.4-5.6-2.7-1.4-1.3-2.4-3.3-3.1-6-.7-2.6-1-5.3-1-8.2s0-1.3,0-1.8c0-.5,0-1.2.1-2,.4-2.5,1.1-4.6,2.2-6.3.8-1.2,1.7-2.1,2.9-2.9,1.2-.7,2.4-1.3,3.7-1.7,1.3-.4,2.6-.6,4-.8s2.6-.2,3.8-.2Zm-2.7-9.6h7l5.2,7h-6l-2.8-3.8-2.9,3.8h-5.9l5.4-7Zm-2.8,23c-.2,1-.3,2.2-.3,3.6s0,2.5.3,3.7.5,2.1,1,3c.5.8,1.1,1.5,1.9,1.9s1.7.6,2.8.6c1,0,2-.2,3-.6,1.2-.5,2-1.2,2.5-2.1.5-.9.8-1.8.9-2.8.1-.5.2-.9.3-1.2,0-.3.1-.6.1-.8,0-.2,0-.5,0-.7,0-.2,0-.5,0-.9,0-1.8-.2-3.4-.6-4.7s-.9-2.3-1.7-2.9c-.7-.6-1.4-1-2.1-1.2s-1.5-.3-2.2-.3c-1.7,0-3.1.5-4.2,1.4-1.1.9-1.7,2.3-1.8,4Zm6.5-31.7h6.5l-5.6,6.8h-4.3l3.5-6.8Z"/>
    <path class="cls-6" d="m440.4,98.1v10.9h5.4v8.5h-5.4v11.9c.2,1.8.6,2.9,1.3,3.3.8.4,1.5.7,2.3.8.8.1,1.7.2,2.7.2l-4.6,8.4c-2.2,0-4.1-.2-5.7-.5s-2.9-1-3.8-1.9c-1-1-1.6-2.1-2-3.3-.4-1.2-.6-3-.6-5.6v-13.4h-4.5l14.8-19.5Z"/>
  </g>
</svg>