<?xml version="1.0" standalone="no"?>
<!DOCTYPE svg PUBLIC "-//W3C//DTD SVG 20010904//EN"
 "http://www.w3.org/TR/2001/REC-SVG-20010904/DTD/svg10.dtd">
<svg version="1.0" xmlns="http://www.w3.org/2000/svg"
 width="270.000000pt" height="270.000000pt" viewBox="0 0 270.000000 270.000000"
 preserveAspectRatio="xMidYMid meet">

<g transform="translate(0.000000,270.000000) scale(0.100000,-0.100000)"
fill="#000000" stroke="none">
<path d="M742 2267 l-522 -302 0 -102 0 -102 120 -68 119 -68 3 -374 3 -375
369 -213 c203 -117 371 -213 373 -213 1 0 3 114 3 253 l0 253 -42 11 c-172 47
-279 243 -235 433 9 36 15 65 14 66 -1 1 -139 80 -307 177 l-305 175 -3 44 -3
43 464 268 c255 147 473 267 484 267 12 0 161 -81 332 -180 l312 -180 49 28
c27 15 49 30 47 34 -3 11 -728 428 -741 428 -6 -1 -246 -137 -534 -303z"/>
<path d="M903 2081 c-205 -118 -369 -219 -365 -222 9 -9 458 -268 477 -275 8
-3 30 6 49 21 59 45 127 65 219 65 101 0 141 -11 207 -55 l50 -34 302 175
c166 96 311 174 323 174 11 0 31 -7 43 -16 l22 -15 0 -549 0 -548 -325 -188
-325 -187 0 -58 c0 -33 3 -59 6 -59 3 0 174 97 380 216 l374 216 0 609 0 609
-37 23 c-21 13 -61 36 -89 52 l-52 29 -116 -67 c-63 -37 -119 -67 -124 -67 -6
0 -135 72 -288 161 -154 88 -297 171 -319 183 l-40 23 -372 -216z"/>
<path d="M1279 1580 c-2 -30 -2 -91 1 -135 l5 -80 5 84 c3 46 3 107 0 135 l-6
51 -5 -55z"/>
<path d="M1060 1536 c0 -2 8 -10 18 -17 15 -13 16 -12 3 4 -13 16 -21 21 -21
13z"/>
<path d="M1497 1533 c-4 -3 -7 -11 -7 -17 0 -6 5 -5 12 2 6 6 9 14 7 17 -3 3
-9 2 -12 -2z"/>
<path d="M1328 1513 c7 -3 16 -2 19 1 4 3 -2 6 -13 5 -11 0 -14 -3 -6 -6z"/>
<path d="M1410 1474 c6 -6 7 -20 4 -30 -6 -15 -4 -17 6 -7 8 8 18 9 24 4 7 -6
11 -1 11 14 0 18 -6 24 -27 27 -21 3 -25 1 -18 -8z"/>
<path d="M1120 1458 c0 -12 3 -18 7 -15 3 4 22 -5 42 -20 35 -26 35 -26 16 -2
-11 13 -24 27 -29 30 -5 4 -5 12 -2 18 5 7 -1 11 -13 11 -15 0 -21 -6 -21 -22z"/>
<path d="M1466 1407 c3 -10 9 -15 12 -12 3 3 0 11 -7 18 -10 9 -11 8 -5 -6z"/>
<path d="M1241 1343 c5 -15 8 -36 5 -48 -5 -18 0 -20 39 -20 25 0 45 4 45 8 0
5 -4 6 -9 3 -4 -3 -6 5 -4 17 6 32 -22 55 -48 39 -15 -10 -19 -9 -19 2 0 8 -4
18 -10 21 -6 4 -6 -4 1 -22z"/>
<path d="M1491 1338 c-1 -15 -11 -18 -53 -19 -39 0 -48 -3 -33 -9 11 -5 35 -9
53 -9 18 -1 32 -6 32 -13 0 -8 5 -6 10 4 6 10 7 25 1 40 -7 17 -10 18 -10 6z"/>
<path d="M1071 1333 c-1 -9 -18 -13 -53 -13 -28 0 -48 -3 -44 -7 4 -4 24 -6
46 -4 28 2 41 -2 49 -16 9 -15 10 -15 11 -2 0 13 14 16 77 18 103 3 107 11 5
11 -55 0 -82 4 -85 13 -4 10 -6 10 -6 0z"/>
<path d="M1330 1310 c0 -5 4 -10 9 -10 6 0 13 5 16 10 3 6 -1 10 -9 10 -9 0
-16 -4 -16 -10z"/>
<path d="M1565 1310 c3 -5 13 -10 21 -10 8 0 14 5 14 10 0 6 -9 10 -21 10 -11
0 -17 -4 -14 -10z"/>
<path d="M1282 1193 c-2 -79 -3 -83 -24 -84 l-23 0 23 -9 c19 -8 22 -18 24
-62 l1 -53 6 54 c5 42 11 56 26 62 19 7 19 8 -2 8 -21 1 -22 6 -26 84 l-3 82
-2 -82z"/>
<path d="M1168 1205 c-15 -14 -32 -25 -38 -25 -5 0 -10 -9 -10 -20 0 -13 5
-18 15 -14 8 4 15 10 15 14 0 5 12 22 26 39 31 37 28 40 -8 6z"/>
<path d="M1410 1182 c0 -10 27 -42 36 -42 2 0 4 10 4 22 0 12 -3 18 -7 15 -3
-4 -12 -2 -20 4 -9 8 -13 8 -13 1z"/>
<path d="M1069 1103 c-13 -16 -12 -17 4 -4 9 7 17 15 17 17 0 8 -8 3 -21 -13z"/>
<path d="M1490 1100 c0 -5 5 -10 11 -10 5 0 7 5 4 10 -3 6 -8 10 -11 10 -2 0
-4 -4 -4 -10z"/>
</g>
</svg>
